<svg version="1.1" id="Layer_1" xmlns="http://www.w3.org/2000/svg" xmlns:xlink="http://www.w3.org/1999/xlink" x="0px" y="0px"
	 width="100%" viewBox="0 0 1024 1024" enable-background="new 0 0 1024 1024" xml:space="preserve">
<path fill="#000000" opacity="1.000000" stroke="none" 
	d="
M546.419189,496.519897 
	C537.705994,482.426910 529.190186,468.637909 520.455261,454.494141 
	C518.368042,457.051941 519.007996,459.114075 519.007874,461.018036 
	C519.004456,526.345947 518.999023,591.673889 519.135803,657.001526 
	C519.145508,661.648804 517.900879,663.491882 512.947571,663.390015 
	C498.787689,663.098877 484.616486,663.144836 470.453735,663.343018 
	C466.160278,663.403015 464.639374,662.118164 464.647675,657.662964 
	C464.752533,601.333801 464.697144,545.004395 464.654968,488.675049 
	C464.653198,486.280914 465.082153,484.152740 466.418213,482.069397 
	C487.643677,448.972260 508.805939,415.834564 530.010498,382.723938 
	C531.069214,381.070679 531.922241,379.190063 534.991211,377.542969 
	C559.246338,416.449524 583.539551,455.417145 607.739075,494.234467 
	C610.854797,493.247681 611.648804,491.112946 612.759460,489.302551 
	C637.675903,448.688995 662.630371,408.098572 687.399719,367.395447 
	C689.616089,363.753235 692.073486,362.558441 696.206909,362.559692 
	C713.198547,362.564789 730.200806,363.201447 747.182251,362.170013 
	C751.174072,361.927582 752.315796,363.729370 752.297974,367.522156 
	C752.185852,391.353241 752.250305,415.185150 752.251526,439.016785 
	C752.255249,511.678284 752.202271,584.339905 752.372925,657.001038 
	C752.385315,662.262939 750.609619,663.473755 745.741943,663.373291 
	C732.248596,663.094666 718.745789,663.276611 705.246765,663.263672 
	C698.698975,663.257385 698.671875,663.244324 698.670593,656.543518 
	C698.658142,592.048096 698.661987,527.552673 698.626526,463.057220 
	C698.625061,460.466370 699.112976,457.762299 697.757019,455.083282 
	C694.833496,455.676636 694.170349,458.195160 693.042236,460.024689 
	C671.880737,494.341461 650.728027,528.664185 629.775513,563.108582 
	C627.397644,567.017639 624.834595,568.652893 620.233398,568.435547 
	C612.251709,568.058655 604.233337,568.142761 596.242737,568.407532 
	C592.422302,568.534119 590.230896,567.201477 588.229919,563.936279 
	C574.476318,541.493469 560.512634,519.179382 546.419189,496.519897 
z"/>
<path fill="#000000" opacity="1.000000" stroke="none" 
	d="
M492.613159,407.567627 
	C468.737671,445.332672 445.087677,482.810974 421.340851,520.227783 
	C419.203613,523.595398 418.153748,526.943176 418.166351,530.975342 
	C418.297607,572.971436 418.191345,614.968445 418.420715,656.963745 
	C418.449219,662.177307 416.732300,663.494873 411.824646,663.392639 
	C398.164764,663.108093 384.492188,663.090515 370.831940,663.351501 
	C365.956024,663.444641 364.601227,661.744263 364.616455,657.016174 
	C364.750763,615.353516 364.635376,573.690063 364.721100,532.027100 
	C364.729370,528.018372 363.848175,524.584229 361.652405,521.238037 
	C335.145081,480.844299 308.714722,440.399994 282.240112,399.984772 
	C275.210541,389.253662 268.096558,378.577820 261.026672,367.873077 
	C260.211578,366.638885 259.172089,365.500793 259.173462,363.798279 
	C260.289062,362.046173 262.127380,362.695770 263.658569,362.689972 
	C281.656799,362.621918 299.656006,362.703064 317.653107,362.540619 
	C321.120300,362.509308 323.112976,363.865082 324.894348,366.674683 
	C344.967499,398.334534 365.131287,429.936890 385.275818,461.551453 
	C385.812500,462.393768 386.407349,463.198975 386.972748,464.023071 
	C389.329498,467.457825 391.606018,467.399689 393.836548,463.888245 
	C399.463745,455.029694 405.159515,446.214142 410.722839,437.315735 
	C425.471741,413.725281 440.184662,390.112213 454.851379,366.470581 
	C456.368256,364.025482 458.000061,362.575317 461.162781,362.597015 
	C479.493683,362.722717 497.825928,362.643311 516.157715,362.664185 
	C517.296570,362.665466 518.435120,362.929291 521.008484,363.249451 
	C511.333557,378.352356 502.073059,392.808289 492.613159,407.567627 
z"/>
</svg>